<svg width="1200" height="760" viewBox="0 0 1200 760" fill="none" xmlns="http://www.w3.org/2000/svg">
  <rect width="1200" height="760" rx="28" fill="#0F172A"/>
  <rect x="28" y="28" width="1144" height="704" rx="24" fill="#F8FAFC"/>
  <text x="72" y="104" fill="#0F172A" font-family="system-ui, sans-serif" font-size="38" font-weight="700">What init creates vs what still waits for ingest</text>
  <text x="72" y="144" fill="#475569" font-family="system-ui, sans-serif" font-size="20">The command finishes with an empty, usable control plane, not a populated searchable knowledge base.</text>

  <rect x="72" y="188" width="488" height="430" rx="26" fill="#ECFDF5" stroke="#16A34A" stroke-width="3"/>
  <text x="108" y="234" fill="#166534" font-family="system-ui, sans-serif" font-size="24" font-weight="700">Prepared by init</text>
  <rect x="108" y="270" width="416" height="72" rx="16" fill="#FFFFFF"/>
  <text x="134" y="314" fill="#0F172A" font-family="system-ui, sans-serif" font-size="18">Root instruction flow for <tspan font-weight="700">AGENTS.md</tspan></text>
  <rect x="108" y="356" width="416" height="72" rx="16" fill="#FFFFFF"/>
  <text x="134" y="400" fill="#0F172A" font-family="system-ui, sans-serif" font-size="18"><tspan font-weight="700">.ragit/config.toml</tspan> and guide scaffolding</text>
  <rect x="108" y="442" width="416" height="72" rx="16" fill="#FFFFFF"/>
  <text x="134" y="486" fill="#0F172A" font-family="system-ui, sans-serif" font-size="18">Template set + <tspan font-weight="700">guide-index.json</tspan></text>
  <rect x="108" y="528" width="416" height="72" rx="16" fill="#FFFFFF"/>
  <text x="134" y="572" fill="#0F172A" font-family="system-ui, sans-serif" font-size="18">Empty canonical store for <tspan font-weight="700">documents</tspan> and <tspan font-weight="700">chunks</tspan></text>

  <rect x="640" y="188" width="488" height="430" rx="26" fill="#FEF2F2" stroke="#DC2626" stroke-width="3"/>
  <text x="676" y="234" fill="#B91C1C" font-family="system-ui, sans-serif" font-size="24" font-weight="700">Not created yet</text>
  <rect x="676" y="270" width="416" height="72" rx="16" fill="#FFFFFF"/>
  <text x="702" y="314" fill="#0F172A" font-family="system-ui, sans-serif" font-size="18">No repository document scan</text>
  <line x1="692" y1="290" x2="1076" y2="322" stroke="#DC2626" stroke-width="4"/>
  <rect x="676" y="356" width="416" height="72" rx="16" fill="#FFFFFF"/>
  <text x="702" y="400" fill="#0F172A" font-family="system-ui, sans-serif" font-size="18">No chunk or manifest generation</text>
  <line x1="692" y1="376" x2="1076" y2="408" stroke="#DC2626" stroke-width="4"/>
  <rect x="676" y="442" width="416" height="72" rx="16" fill="#FFFFFF"/>
  <text x="702" y="486" fill="#0F172A" font-family="system-ui, sans-serif" font-size="18">No vector upsert into the empty store</text>
  <line x1="692" y1="462" x2="1076" y2="494" stroke="#DC2626" stroke-width="4"/>
  <rect x="676" y="528" width="416" height="72" rx="16" fill="#FFFFFF"/>
  <text x="702" y="572" fill="#0F172A" font-family="system-ui, sans-serif" font-size="18">No search-ready corpus or snapshot hits</text>
  <line x1="692" y1="548" x2="1076" y2="580" stroke="#DC2626" stroke-width="4"/>

  <rect x="72" y="642" width="1056" height="54" rx="18" fill="#DBEAFE"/>
  <text x="108" y="675" fill="#1D4ED8" font-family="system-ui, sans-serif" font-size="20" font-weight="700">Result: control-plane ready + zvec-store ready, but still not search-ready.</text>

  <path d="M560 404H604" stroke="#94A3B8" stroke-width="5" stroke-linecap="round"/>
  <path d="M604 404L586 388" stroke="#94A3B8" stroke-width="5" stroke-linecap="round"/>
  <path d="M604 404L586 420" stroke="#94A3B8" stroke-width="5" stroke-linecap="round"/>

  <path d="M884 620V642" stroke="#F59E0B" stroke-width="5" stroke-linecap="round"/>
  <rect x="804" y="646" width="248" height="50" rx="16" fill="#FEF3C7"/>
  <text x="836" y="678" fill="#92400E" font-family="system-ui, sans-serif" font-size="20" font-weight="700">ingest makes it searchable</text>
</svg>
